<svg width="195" height="48" viewBox="0 0 195 48" fill="none" xmlns="http://www.w3.org/2000/svg">
<g clip-path="url(#clip0_1:350)">
<path d="M0 0V45L40 36.0079V0H0Z" fill="#0B6CFF"/>
<path d="M17.073 12.6627L13.234 21.3858H20.9106L17.073 12.6627ZM12.1173 23.8444L9.65405 29.25H6.76048L17.073 6.77238L27.384 29.25H24.4909L22.0273 23.8444H12.1173Z" fill="white"/>
<path d="M22.9941 9.25751H23.7711C24.9361 9.25751 26.0052 9.3643 26.8358 9.75537H30.4489C29.1037 7.36346 26.0865 6.74977 22.9344 6.74977H18.261L19.6219 9.75537H22.9941V9.25751Z" fill="white"/>
<path d="M22.994 13.6528V10.65H20.027L21.3868 13.6528H22.994Z" fill="white"/>
<path d="M28.5086 13.6528H31.1207C31.1575 13.408 31.1839 13.1646 31.1839 12.9271C31.1839 12.052 31.0582 11.3027 30.8387 10.65H27.9279C28.3222 11.1939 28.5525 11.9346 28.5525 12.9575C28.5525 13.2069 28.5344 13.435 28.5086 13.6528Z" fill="white"/>
<path d="M29.7401 17.5518C29.4276 17.4226 29.1038 17.315 28.762 17.2534V17.1944C29.7947 16.7101 30.5268 15.6751 30.8994 14.5489H28.3116C27.6784 16.3634 25.8516 16.7169 23.711 16.7169H22.9929V14.5489H21.7923L23.152 17.5518H29.7401Z" fill="white"/>
<path d="M23.5578 18.4473H31.1865C32.0909 19.2255 32.7411 20.2885 33.0529 21.4502H30.2237C29.4401 19.427 26.8369 18.955 24.7271 18.955H23.7876L23.5578 18.4473Z" fill="white"/>
<path d="M29.5415 25.3496H32.8249C33.1086 24.6548 33.2747 23.8638 33.2747 22.9529C33.2747 22.75 33.2464 22.5477 33.2234 22.3468H30.4385C30.4536 22.4851 30.4658 22.625 30.4658 22.7754C30.4658 23.921 30.1113 24.7513 29.5415 25.3496Z" fill="white"/>
<path d="M28.1808 26.2453C27.8776 26.368 27.5544 26.4624 27.2205 26.5365L28.2954 28.9102C29.991 28.4784 31.4663 27.6194 32.3619 26.2453H28.1808Z" fill="white"/>
<path d="M63.68 29L61.188 23.12H53.292L50.8 29H48.14L57.24 8.42L66.34 29H63.68ZM57.24 13.824L54.244 20.88H60.236L57.24 13.824ZM69.2767 19.2C69.2767 20.712 69.6127 22.0467 70.2847 23.204C70.9754 24.3613 71.8714 25.2667 72.9727 25.92C74.0741 26.5733 75.2687 26.9 76.5567 26.9C77.9381 26.9 79.1607 26.6293 80.2247 26.088C81.2887 25.5467 82.1661 24.8467 82.8567 23.988V27.124C82.0354 27.852 81.1394 28.3933 80.1687 28.748C79.1981 29.1027 77.9941 29.28 76.5567 29.28C75.1941 29.28 73.9154 29.0373 72.7207 28.552C71.5447 28.048 70.5087 27.348 69.6127 26.452C68.7167 25.5373 68.0167 24.464 67.5127 23.232C67.0087 22 66.7567 20.656 66.7567 19.2C66.7567 17.744 67.0087 16.4 67.5127 15.168C68.0167 13.936 68.7167 12.872 69.6127 11.976C70.5087 11.0613 71.5447 10.3613 72.7207 9.876C73.9154 9.372 75.1941 9.12 76.5567 9.12C77.9941 9.12 79.1981 9.29733 80.1687 9.652C81.1394 10.0067 82.0354 10.548 82.8567 11.276V14.412C82.1661 13.5347 81.2887 12.8347 80.2247 12.312C79.1607 11.7707 77.9381 11.5 76.5567 11.5C75.2687 11.5 74.0741 11.8267 72.9727 12.48C71.8714 13.1333 70.9754 14.0387 70.2847 15.196C69.6127 16.3347 69.2767 17.6693 69.2767 19.2ZM88.4447 19.2C88.4447 20.712 88.7807 22.0467 89.4527 23.204C90.1434 24.3613 91.0394 25.2667 92.1407 25.92C93.242 26.5733 94.4367 26.9 95.7247 26.9C97.106 26.9 98.3287 26.6293 99.3927 26.088C100.457 25.5467 101.334 24.8467 102.025 23.988V27.124C101.203 27.852 100.307 28.3933 99.3367 28.748C98.366 29.1027 97.162 29.28 95.7247 29.28C94.362 29.28 93.0834 29.0373 91.8887 28.552C90.7127 28.048 89.6767 27.348 88.7807 26.452C87.8847 25.5373 87.1847 24.464 86.6807 23.232C86.1767 22 85.9247 20.656 85.9247 19.2C85.9247 17.744 86.1767 16.4 86.6807 15.168C87.1847 13.936 87.8847 12.872 88.7807 11.976C89.6767 11.0613 90.7127 10.3613 91.8887 9.876C93.0834 9.372 94.362 9.12 95.7247 9.12C97.162 9.12 98.366 9.29733 99.3367 9.652C100.307 10.0067 101.203 10.548 102.025 11.276V14.412C101.334 13.5347 100.457 12.8347 99.3927 12.312C98.3287 11.7707 97.106 11.5 95.7247 11.5C94.4367 11.5 93.242 11.8267 92.1407 12.48C91.0394 13.1333 90.1434 14.0387 89.4527 15.196C88.7807 16.3347 88.4447 17.6693 88.4447 19.2ZM106.213 9.4H117.413V11.64H108.593V17.24H116.853V19.48H108.593V26.76H117.413V29H106.213V9.4ZM121.607 9.4H123.987V26.76H131.687V29H121.607V9.4ZM146.197 23.26C146.197 24.548 145.898 25.6213 145.301 26.48C144.722 27.32 143.929 27.9547 142.921 28.384C141.931 28.7947 140.802 29 139.533 29H134.213V9.4H139.253C141.007 9.4 142.417 9.80133 143.481 10.604C144.545 11.4067 145.077 12.6387 145.077 14.3C145.077 15.308 144.787 16.1573 144.209 16.848C143.63 17.52 142.837 18.0053 141.829 18.304C143.117 18.5653 144.162 19.1067 144.965 19.928C145.786 20.7307 146.197 21.8413 146.197 23.26ZM139.253 11.5H136.593V17.324H139.253C140.242 17.324 141.063 17.072 141.717 16.568C142.37 16.064 142.697 15.3547 142.697 14.44C142.697 13.5067 142.37 12.788 141.717 12.284C141.063 11.7613 140.242 11.5 139.253 11.5ZM136.593 26.9H139.533C140.802 26.9 141.829 26.5733 142.613 25.92C143.415 25.248 143.817 24.3147 143.817 23.12C143.817 21.9067 143.415 20.9827 142.613 20.348C141.829 19.7133 140.802 19.396 139.533 19.396H136.593V26.9ZM159.646 9.4H162.306L155.782 20.544V29H153.402V20.572L146.878 9.4H149.538L154.578 18.472L159.646 9.4ZM163.561 11.64V9.4H176.021V11.64H170.981V29H168.601V11.64H163.561ZM178.537 9.4H189.737V11.64H180.917V17.24H189.177V19.48H180.917V26.76H189.737V29H178.537V9.4Z" fill="#15181D"/>
</g>
<defs>
<clipPath id="clip0_1:350">
<rect width="195" height="48" fill="white"/>
</clipPath>
</defs>
</svg>
